<svg width="260" height="227" viewBox="0 0 260 227" fill="none" xmlns="http://www.w3.org/2000/svg">
<g clip-path="url(#clip0_63_70)">
<path d="M187.306 226.62L189.52 221.599C189.52 205.624 189.668 189.572 189.742 173.597C186.568 167.739 181.107 159.219 172.251 151.308C154.096 135.028 133.432 131.681 117.786 129.171C110.701 128.03 95.7934 126.204 76.9004 128.41C57.5646 130.692 34.1698 133.431 17.048 151.764C9.88932 159.448 5.90407 167.511 3.69005 173.217C1.84503 179.835 -0.0737947 189.42 0.221408 201.135C0.516611 211.861 2.50923 220.686 4.42805 226.848C65.4613 226.696 126.421 226.62 187.454 226.467L187.306 226.62Z" fill="black"/>
<path d="M127.971 49.523C124.797 45.0348 120.148 42.7526 110.701 38.2643C102.952 34.5368 98.8932 32.635 93.5058 32.4068C82.6571 31.9503 69.8895 38.3404 64.6497 48.7623C57.491 63.0639 66.0519 81.6256 63.3951 82.4624C61.919 82.9188 60.812 77.2134 54.4652 72.8012C49.7419 69.6061 46.7161 69.9104 45.0925 66.9436C43.5426 64.0529 45.9781 61.6185 46.4209 57.5867C47.3803 47.5452 34.2438 43.7415 33.9486 35.3736C33.6534 26.0167 49.5943 14.6058 64.5759 13.1604C75.9412 12.0954 80.1478 17.4205 89.0039 13.6929C98.8932 9.43289 98.8194 0.380279 105.314 -8.24287e-05C114.687 -0.532589 117.934 18.1812 131.439 19.8548C137.786 20.6155 139.705 16.8119 144.576 18.8659C152.989 22.4413 157.417 38.3404 152.399 45.263C149.373 49.447 144.65 47.9255 142.731 52.1095C140.074 57.891 147.454 63.6725 144.797 68.6933C142.583 72.9533 136.458 70.6712 131.808 76.1484C128.487 80.1041 128.487 85.1249 128.192 85.1249C127.602 84.9728 136.974 62.2271 128.045 49.3709L127.971 49.523Z" fill="#231F20"/>
<path d="M64.7231 80.7127L62.5091 69.0736C61.8449 68.5411 60.6641 69.2258 60.2213 69.7583C59.3357 70.8233 59.7785 72.7251 58.7453 73.1816C58.4501 69.9104 59.4833 68.9215 62.0663 67.5522C60.8855 65.8025 59.4833 64.8136 57.2693 64.9657C58.3763 62.6075 61.9925 66.4872 62.1401 66.335C63.1733 61.8468 59.0405 56.2174 55.7194 61.3143C50.701 69.0737 54.1696 82.9188 64.7231 80.7888V80.7127Z" fill="white" stroke="#231F20" stroke-width="5" stroke-miterlimit="10"/>
<path d="M131.292 68.0087C131.292 68.0087 134.539 63.6725 136.089 65.8026C134.76 66.1829 132.251 67.2479 131.882 68.6933C131.587 69.7583 133.801 69.2258 134.686 70.8994C135.277 71.9644 135.277 73.1055 135.351 74.3227C134.022 73.9423 134.317 71.2798 133.432 70.5191C133.063 70.1387 131.218 69.8344 131.07 70.0626L129.742 83.9839C135.129 83.2231 139.483 74.4748 139.852 69.454C140.221 64.4333 138.081 56.3696 131.956 59.7928L131.365 68.0087H131.292Z" fill="white" stroke="#231F20" stroke-width="5" stroke-miterlimit="10"/>
<path d="M118.303 95.9273L116.827 127.421C122.731 129.171 128.709 130.845 134.613 132.594C131.07 136.93 121.771 147.048 106.347 151.46C102.214 152.601 83.5427 157.318 65.3139 146.591C58.229 142.408 53.5796 137.311 50.7752 133.659C58.8932 130.921 66.9375 128.182 75.0556 125.367C74.908 114.945 74.6866 104.523 74.539 94.1776C89.1515 94.7862 103.764 95.3948 118.377 96.0033L118.303 95.9273Z" fill="white" stroke="#231F20" stroke-width="3" stroke-miterlimit="10"/>
<path d="M97.7125 119.89C115.794 119.281 124.871 96.9162 127.011 91.8193C128.561 87.9396 139.41 61.3143 123.469 43.6655C109.373 28.0707 83.0262 29.0596 70.0373 41.7637C53.8011 57.6628 63.1738 84.8206 67.4542 97.2204C67.528 97.5247 67.6018 97.6769 67.6757 97.9051C71.9561 109.468 84.7236 120.27 97.7125 119.814V119.89Z" fill="white" stroke="#231F20" stroke-width="3" stroke-miterlimit="10"/>
<path d="M96.9746 70.443C96.827 79.876 96.6056 86.9507 96.5318 90.1457C96.5318 90.6022 96.5318 91.8954 95.5724 92.2758C94.244 92.8083 91.8824 91.3629 91.0706 90.8304" stroke="#231F20" stroke-width="2" stroke-miterlimit="10" stroke-linecap="round"/>
<path d="M108.856 99.1223C108.192 100.416 106.347 103.611 102.51 105.817C98.2291 108.251 94.2439 107.871 92.8417 107.718" stroke="#231F20" stroke-width="3" stroke-miterlimit="10"/>
<path d="M113.995 71.0515C112.891 71.0515 111.995 70.8277 111.995 70.5515C111.995 70.2754 112.891 70.0515 113.995 70.0515C115.1 70.0515 115.995 70.2754 115.995 70.5515C115.995 70.8277 115.1 71.0515 113.995 71.0515Z" fill="#231F20"/>
<path d="M78.9951 71.0515C77.8905 71.0515 76.9951 70.8277 76.9951 70.5515C76.9951 70.2754 77.8905 70.0515 78.9951 70.0515C80.0997 70.0515 80.9951 70.2754 80.9951 70.5515C80.9951 70.8277 80.0997 71.0515 78.9951 71.0515Z" fill="#231F20"/>
<path d="M82.0669 56.5217C82.0669 56.5217 80.5909 54.8481 78.5245 54.9241C76.9746 54.9241 75.9414 55.7609 75.6462 56.0652" stroke="#231F20" stroke-width="3" stroke-miterlimit="10"/>
<path d="M120.517 58.7278C120.074 56.4457 118.451 54.8481 116.679 54.7721C115.203 54.696 114.096 55.6089 113.801 55.9131" stroke="#231F20" stroke-width="3" stroke-miterlimit="10"/>
<path d="M206.994 130.301C207.988 146.411 207.358 169.093 199.697 194.295C196.505 204.729 192.676 213.764 188.79 221.549C177.914 217.977 167.038 214.404 156.184 210.905C157.037 201.943 158.577 191.909 161.288 181.14C166.531 160.048 174.529 143.146 181.647 130.619L206.994 130.301Z" fill="black"/>
<path d="M183.873 59.227C182.158 59.4086 182.37 61.7237 182.235 63.1097C181.388 73.4169 183.666 85.747 183.415 96.515C183.364 99.7778 183.433 105.303 179.43 106.071C173.378 107.197 167.38 94.7597 159.691 95.8065C157.997 96.0612 153.263 98.5466 156.473 100.069C161.808 102.559 164.685 102.673 168.814 107.89C174.665 115.062 175.087 126.822 182.717 132.447C185.947 134.835 197.199 137.585 201.082 136.931C216.29 134.253 216.355 104.605 217.861 92.6012C218.202 89.8085 221.652 72.3277 220.483 71.4792C218.116 71.5334 217.499 74.1687 216.811 76.0324C215.073 80.8947 214.844 87.7743 212.398 92.0504C211.732 93.1948 210.76 95.1408 209.322 94.6875C206.913 93.0111 207.396 90.9695 207.517 88.4784C207.894 82.9024 212.839 64.7492 211.43 60.9601C211.26 60.3757 210.686 59.988 210.204 59.6527C209.042 60.9413 208.538 62.1175 208.021 63.7733C205.949 70.3962 206.357 81.0519 203.755 87.4332C203.173 88.8698 202.166 90.43 200.487 89.4129C198.107 87.5698 199.217 73.938 199.111 70.4036C199.034 67.4948 198.67 54.6084 196.523 53.5688C194.376 52.5293 193.879 55.0503 193.645 56.6237C192.197 65.1253 194.433 76.517 192.524 84.7564C192.042 86.798 190.149 89.8041 188.399 87.2231C186.784 84.8406 187.234 74.4903 186.803 70.8922C186.315 66.8352 185.423 62.9749 183.802 59.2476L183.873 59.227ZM191.16 96.7194C196.559 97.8433 202.837 99.3456 207.25 102.895L192.839 97.7364L191.16 96.7194ZM194.459 128.162C193.979 123.865 191.606 120.198 189.489 116.615C192.195 118.521 194.071 123.125 194.63 126.369C194.8 126.954 195.253 128.248 194.41 128.255L194.459 128.162Z" fill="white" stroke="#231F20" stroke-width="3" stroke-miterlimit="10"/>
<path d="M191.16 96.7194L192.839 97.7365L207.251 102.895C202.837 99.3456 196.559 97.8433 191.16 96.7194Z" fill="black"/>
<path d="M194.459 128.162C195.302 128.154 194.778 126.881 194.679 126.276C194.121 123.032 192.266 118.501 189.538 116.521C191.677 120.177 194.028 123.771 194.509 128.068L194.459 128.162Z" fill="black"/>
</g>
<defs>
<clipPath id="clip0_63_70">
<rect width="260" height="227" fill="white" transform="matrix(-1 0 0 1 260 0)"/>
</clipPath>
</defs>
</svg>
